:SAMPLES-PER-SECOND 30
:FRAME-RANGE 1-3535
:FULLY-SPECIFIED
:DEGREES
111
root  17.3724 36.5573 -31.2075 7.71144 -68.1367 -7.67032
RightUpLeg  -17.4165 2.44294 -11.661
RightLeg  46.5889 1.72228 1.63334
RightFoot  -22.7238 1.25593 14.0924
RightToes  5.38503e-012 1.26228e-014 -6.01869e-014
Spine  0.405334 -6.4155 -14.8535
Spine1  7.06957 -11.1553 16.5748
HEad  39.0161 7.77846 -0.284525
LeftShoulder1  1.48363 -5.76447 -9.20632
LeftArm  -29.0345 0.178989 -38.6972
LeftForeArm  40.8452 -63.2934 -18.4352
LeftHand  0.190867 6.39957 22.4698
RightShoulder  -0.669694 -4.97646 34.4542
RightArm  -30.4842 -11.9287 35.4102
RightForeArm  38.1359 72.5449 33.8188
RightHand  0.204775 -5.82047 -47.2991
LeftUpLeg  -27.7911 -4.25547 14.5637
LeftLeg  43.9397 -12.3268 -12.0442
LeftFoot  -23.6749 -1.34654 -13.7185
LeftToes  8.9788e-011 3.29689e-010 2.1201e-011
112
root  17.5958 36.184 -30.7936 5.62697 -68.3447 -5.57758
RightUpLeg  -18.8263 1.43707 -12.7219
RightLeg  50.8911 0.308852 0.0512794
RightFoot  -24.2268 1.27518 12.7077
RightToes  5.38503e-012 1.26228e-014 -6.01869e-014
Spine  0.812902 -6.5442 -15.6286
Spine1  7.44352 -11.5086 16.6355
HEad  39.0609 8.15526 -1.87444
LeftShoulder1  1.41905 -5.71814 -8.49989
LeftArm  -27.2523 -3.18759 -36.3673
LeftForeArm  29.0684 -52.286 -12.199
LeftHand  -0.0654789 5.0771 22.3812
RightShoulder  -0.712029 -5.01364 35.9861
RightArm  -28.983 -16.9363 39.1496
RightForeArm  40.5177 73.6858 36.8409
RightHand  -0.049154 -5.23635 -48.8754
LeftUpLeg  -29.2527 -4.57075 12.8709
LeftLeg  46.8229 -11.4193 -12.3337
LeftFoot  -23.9007 -1.14362 -11.6604
LeftToes  8.9788e-011 3.29689e-010 2.1201e-011
113
root  17.8957 35.643 -30.2153 -1.50075 -72.1772 1.18935
RightUpLeg  -20.9924 2.15653 -15.8412
RightLeg  55.6157 -0.976668 -1.95085
RightFoot  -24.1208 1.15686 11.7605
RightToes  5.38503e-012 1.26228e-014 -6.01869e-014
Spine  1.67367 -5.22901 -14.2348
Spine1  7.01275 -9.25123 12.5267
HEad  39.2098 8.57688 -3.34413
LeftShoulder1  1.30023 -4.40809 -9.76157
LeftArm  -24.7184 -5.07797 -34.0215
LeftForeArm  23.895 -48.2067 -10.7728
LeftHand  -0.18925 4.43758 22.4401
RightShoulder  -0.316012 -4.08989 34.9561
RightArm  -30.2029 -17.2954 42.3212
RightForeArm  30.3119 68.4781 26.442
RightHand  -0.0764203 -5.17359 -48.03
LeftUpLeg  -29.3547 -3.64641 9.21947
LeftLeg  50.1474 -8.96868 -10.8818
LeftFoot  -25.063 -1.0417 -9.88719
LeftToes  8.9788e-011 3.29689e-010 2.1201e-011
114
root  18.1805 34.9352 -29.5423 -19.8226 -78.2882 19.1565
RightUpLeg  -24.0146 4.97683 -20.32
RightLeg  59.1794 -1.11153 -2.48356
RightFoot  -24.175 1.74085 16.8367
RightToes  5.38503e-012 1.26228e-014 -6.01869e-014
Spine  3.26598 -2.52654 -11.3074
Spine1  5.15301 -4.82401 5.58577
HEad  39.7061 8.52339 -4.93018
LeftShoulder1  1.117 -2.44137 -12.6214
LeftArm  -23.9383 -4.23604 -32.6106
LeftForeArm  26.3333 -52.7035 -12.6368
LeftHand  -0.0954991 4.92254 22.4459
RightShoulder  0.238372 -2.68736 31.8474
RightArm  -32.3532 -13.9328 43.6905
RightForeArm  19.53 56.4002 15.3708
RightHand  -0.267037 -4.71503 -46.0817
LeftUpLeg  -29.0642 0.107881 4.51343
LeftLeg  53.9333 -6.41114 -8.85617
LeftFoot  -26.8248 -0.905689 -7.8377
LeftToes  8.9788e-011 3.29689e-010 2.1201e-011
115
root  18.3996 34.2264 -28.8451 -66.6281 -81.9627 65.8868
RightUpLeg  -27.9496 7.73085 -25.0892
RightLeg  61.0268 -1.13411 -2.72331
RightFoot  -26.1746 2.27907 18.7312
RightToes  5.38503e-012 1.26228e-014 -6.01869e-014
Spine  5.40964 0.32131 -7.57341
Spine1  2.30564 -0.027219 -2.53963
HEad  40.1957 8.15151 -5.78749
LeftShoulder1  0.632239 0.509705 -16.0973
LeftArm  -24.2356 -2.05521 -32.0136
LeftForeArm  33.8428 -61.8878 -17.9767
LeftHand  0.0866433 5.86696 22.3135
RightShoulder  0.909479 -0.660294 28.2777
RightArm  -35.4939 -8.59235 44.0246
RightForeArm  14.3889 39.0655 8.1939
RightHand  -0.678444 -3.67381 -44.5089
LeftUpLeg  -29.2233 6.79195 -0.0563142
LeftLeg  57.428 -4.93624 -7.70307
LeftFoot  -28.5185 -0.664152 -5.53
LeftToes  8.9788e-011 3.29689e-010 2.1201e-011
116
root  18.5522 33.5899 -28.1367 -113.586 -77.9398 112.872
RightUpLeg  -32.7235 10.1697 -30.575
RightLeg  62.1524 -0.441573 -1.42975
RightFoot  -28.0294 2.55771 18.5986
RightToes  5.38503e-012 1.26228e-014 -6.01869e-014
Spine  6.91942 3.24725 -4.26223
Spine1  1.0719 4.71321 -10.1723
HEad  40.1008 6.71373 -6.98506
LeftShoulder1  -0.186659 3.97866 -21.4622
LeftArm  -24.5391 -1.39991 -31.2721
LeftForeArm  45.6293 -71.7015 -29.9817
LeftHand  0.279285 6.87863 22.153
RightShoulder  1.53327 1.86607 23.4746
RightArm  -43.0089 -2.8786 44.739
RightForeArm  18.7219 19.3141 2.91364
RightHand  -1.03875 -2.68227 -43.0029
LeftUpLeg  -29.6635 14.7284 -4.8171
LeftLeg  60.1304 -4.03566 -6.9335
LeftFoot  -30.2608 -0.4463 -3.77147
LeftToes  8.9788e-011 3.29689e-010 2.1201e-011
